<?xml version="1.0" standalone="no"?>
<!DOCTYPE svg PUBLIC "-//W3C//DTD SVG 20010904//EN"
 "http://www.w3.org/TR/2001/REC-SVG-20010904/DTD/svg10.dtd">
<svg version="1.0" xmlns="http://www.w3.org/2000/svg"
 width="285.000000pt" height="274.000000pt" viewBox="0 0 285.000000 274.000000"
 preserveAspectRatio="xMidYMid meet">

<g transform="translate(0.000000,274.000000) scale(0.100000,-0.100000)"
fill="#3ABEF9" stroke="none">
<path d="M1343 2438 c-71 -125 -296 -518 -496 -863 -60 -104 -179 -311 -264
-460 -86 -148 -162 -277 -169 -286 -8 -8 -14 -18 -14 -21 0 -5 -65 -118 -198
-346 -37 -63 -79 -135 -94 -160 -15 -26 -27 -53 -28 -59 0 -10 90 -13 419 -13
l419 0 188 325 c239 412 253 437 254 453 0 8 -53 105 -119 217 l-118 203 29
47 c17 27 33 44 38 39 5 -5 40 -65 79 -134 39 -69 75 -132 81 -140 5 -8 28
-48 51 -88 23 -41 46 -75 53 -77 6 -2 86 -5 179 -7 145 -3 167 -1 167 12 0 15
-16 45 -158 290 l-61 105 30 5 c27 4 41 23 130 175 75 128 99 176 95 195 -2
14 -59 120 -126 235 -67 116 -156 270 -198 343 -42 72 -82 132 -88 132 -7 0
-43 -55 -81 -122z m116 -551 l24 -44 -28 -47 c-15 -26 -29 -45 -32 -43 -2 3
-17 24 -32 48 l-27 44 29 47 c16 26 32 46 36 44 3 -3 17 -24 30 -49z m-489
-824 c12 -20 22 -44 23 -52 1 -14 -182 -340 -249 -443 -23 -35 -28 -38 -72
-38 -27 0 -51 2 -54 6 -3 3 47 96 111 207 65 111 137 237 162 279 24 43 47 78
51 78 3 0 16 -17 28 -37z"/>
<path d="M1881 1698 c-8 -13 -28 -48 -45 -78 -16 -30 -45 -80 -63 -110 -18
-30 -33 -68 -33 -83 0 -24 166 -321 449 -802 23 -38 41 -75 41 -82 0 -10 -68
-13 -319 -13 -176 0 -322 4 -325 8 -3 4 44 93 105 196 60 103 109 194 109 202
0 12 -28 14 -177 12 l-176 -3 -199 -344 c-109 -189 -198 -349 -198 -357 0 -12
133 -14 860 -14 625 0 860 3 860 11 0 6 -62 118 -137 248 -75 130 -146 252
-156 271 -25 45 -47 84 -128 222 -37 62 -142 244 -234 403 -204 353 -193 335
-208 335 -7 0 -19 -10 -26 -22z"/>
<path d="M1838 787 c-85 -153 -92 -137 66 -137 153 0 156 2 115 69 -11 19 -29
48 -38 65 -42 75 -64 106 -74 106 -7 -1 -38 -47 -69 -103z"/>
</g>
</svg>
